<mxfile host="app.diagrams.net" modified="2023-09-05T18:04:27.770Z" agent="Mozilla/5.0 (X11; Ubuntu; Linux x86_64; rv:109.0) Gecko/20100101 Firefox/116.0" version="21.7.2" etag="1QbTIs62j2mPimIc9G4V" type="github">
  <diagram name="Page-1" id="ybmmxOjd6OIMSv4Oo-Rl">
    <mxGraphModel>
      <root>
        <mxCell id="0" />
        <mxCell id="1" parent="0" />
      </root>
    </mxGraphModel>
  </diagram>
</mxfile>
